<svg width="36" height="45" viewBox="0 0 36 45" fill="none" xmlns="http://www.w3.org/2000/svg">
<path d="M12.0332 13.4727L0.753906 11.4512C1.69141 7.85742 3.48828 5.10352 6.14453 3.18945C8.82031 1.27539 12.5996 0.318359 17.4824 0.318359C23.0879 0.318359 27.1406 1.36328 29.6406 3.45312C32.1406 5.54297 33.3906 8.16992 33.3906 11.334C33.3906 13.1895 32.8828 14.8691 31.8672 16.373C30.8516 17.877 29.3184 19.1953 27.2676 20.3281C28.9277 20.7383 30.1973 21.2168 31.0762 21.7637C32.502 22.6426 33.6055 23.8047 34.3867 25.25C35.1875 26.6758 35.5879 28.3848 35.5879 30.377C35.5879 32.877 34.9336 35.2793 33.625 37.584C32.3164 39.8691 30.4316 41.6367 27.9707 42.8867C25.5098 44.1172 22.2773 44.7324 18.2734 44.7324C14.3672 44.7324 11.2812 44.2734 9.01562 43.3555C6.76953 42.4375 4.91406 41.0996 3.44922 39.3418C2.00391 37.5645 0.890625 35.3379 0.109375 32.6621L12.0332 31.0801C12.502 33.4824 13.2246 35.1523 14.2012 36.0898C15.1973 37.0078 16.457 37.4668 17.9805 37.4668C19.582 37.4668 20.9102 36.8809 21.9648 35.709C23.0391 34.5371 23.5762 32.9746 23.5762 31.0215C23.5762 29.0293 23.0586 27.4863 22.0234 26.3926C21.0078 25.2988 19.6211 24.752 17.8633 24.752C16.9258 24.752 15.6367 24.9863 13.9961 25.4551L14.6113 16.9297C15.2754 17.0273 15.793 17.0762 16.1641 17.0762C17.7266 17.0762 19.0254 16.5781 20.0605 15.582C21.1152 14.5859 21.6426 13.4043 21.6426 12.0371C21.6426 10.7285 21.252 9.68359 20.4707 8.90234C19.6895 8.12109 18.6152 7.73047 17.248 7.73047C15.8418 7.73047 14.6992 8.16016 13.8203 9.01953C12.9414 9.85938 12.3457 11.3437 12.0332 13.4727Z" fill="#00536A"/>
</svg>
