<svg width="37" height="44" viewBox="0 0 37 44" fill="none" xmlns="http://www.w3.org/2000/svg">
<path d="M6.29492 0.0507812H34.625V9.57227H15.4355L14.4102 16.0176C15.7383 15.3926 17.0469 14.9238 18.3359 14.6113C19.6445 14.2988 20.9336 14.1426 22.2031 14.1426C26.5 14.1426 29.9863 15.4414 32.6621 18.0391C35.3379 20.6367 36.6758 23.9082 36.6758 27.8535C36.6758 30.627 35.9824 33.293 34.5957 35.8516C33.2285 38.4102 31.2754 40.3633 28.7363 41.7109C26.2168 43.0586 22.9844 43.7324 19.0391 43.7324C16.207 43.7324 13.7754 43.4688 11.7441 42.9414C9.73242 42.3945 8.01367 41.5938 6.58789 40.5391C5.18164 39.4648 4.03906 38.2539 3.16016 36.9062C2.28125 35.5586 1.54883 33.8789 0.962891 31.8672L13.0332 30.5488C13.3262 32.4824 14.0098 33.957 15.084 34.9727C16.1582 35.9688 17.4375 36.4668 18.9219 36.4668C20.582 36.4668 21.9492 35.8418 23.0234 34.5918C24.1172 33.3223 24.6641 31.4375 24.6641 28.9375C24.6641 26.3789 24.1172 24.5039 23.0234 23.3125C21.9297 22.1211 20.4746 21.5254 18.6582 21.5254C17.5059 21.5254 16.3926 21.8086 15.3184 22.375C14.5176 22.7852 13.6387 23.5273 12.6816 24.6016L2.51562 23.1367L6.29492 0.0507812Z" fill="#00536A"/>
</svg>
